<?xml version="1.0" encoding="UTF-8" standalone="no"?>
<!-- Created with Inkscape (http://www.inkscape.org/) -->

<svg
   xmlns:osb="http://www.openswatchbook.org/uri/2009/osb"
   xmlns:dc="http://purl.org/dc/elements/1.1/"
   xmlns:cc="http://creativecommons.org/ns#"
   xmlns:rdf="http://www.w3.org/1999/02/22-rdf-syntax-ns#"
   xmlns:svg="http://www.w3.org/2000/svg"
   xmlns="http://www.w3.org/2000/svg"
   xmlns:xlink="http://www.w3.org/1999/xlink"
   xmlns:sodipodi="http://sodipodi.sourceforge.net/DTD/sodipodi-0.dtd"
   xmlns:inkscape="http://www.inkscape.org/namespaces/inkscape"
   width="210mm"
   height="297mm"
   viewBox="0 0 210 297"
   version="1.1"
   id="svg8"
   inkscape:version="0.92.4 (5da689c313, 2019-01-14)"
   sodipodi:docname="D.svg">
  <defs
     id="defs2">
    <linearGradient
       id="linearGradient2456"
       osb:paint="solid">
      <stop
         style="stop-color:#000000;stop-opacity:1;"
         offset="0"
         id="stop2454" />
    </linearGradient>
    <linearGradient
       id="linearGradient2450"
       osb:paint="solid">
      <stop
         style="stop-color:#000000;stop-opacity:1;"
         offset="0"
         id="stop2448" />
    </linearGradient>
    <linearGradient
       id="linearGradient2428"
       osb:paint="solid">
      <stop
         style="stop-color:#000000;stop-opacity:1;"
         offset="0"
         id="stop2426" />
    </linearGradient>
    <linearGradient
       id="linearGradient2409"
       osb:paint="solid">
      <stop
         style="stop-color:#000000;stop-opacity:1;"
         offset="0"
         id="stop2407" />
    </linearGradient>
    <linearGradient
       id="linearGradient2398"
       osb:paint="solid">
      <stop
         style="stop-color:#000000;stop-opacity:1;"
         offset="0"
         id="stop2396" />
    </linearGradient>
    <linearGradient
       id="linearGradient2382"
       osb:paint="solid">
      <stop
         style="stop-color:#000000;stop-opacity:1;"
         offset="0"
         id="stop2380" />
    </linearGradient>
    <linearGradient
       id="linearGradient910"
       osb:paint="solid">
      <stop
         style="stop-color:#000000;stop-opacity:1;"
         offset="0"
         id="stop908" />
    </linearGradient>
    <linearGradient
       id="linearGradient883"
       osb:paint="solid">
      <stop
         style="stop-color:#0b0202;stop-opacity:1;"
         offset="0"
         id="stop881" />
    </linearGradient>
    <linearGradient
       id="linearGradient877"
       osb:paint="solid">
      <stop
         style="stop-color:#c63434;stop-opacity:1;"
         offset="0"
         id="stop875" />
    </linearGradient>
    <linearGradient
       id="linearGradient871"
       osb:paint="solid">
      <stop
         style="stop-color:#000000;stop-opacity:1;"
         offset="0"
         id="stop869" />
    </linearGradient>
    <radialGradient
       inkscape:collect="always"
       xlink:href="#linearGradient883"
       id="radialGradient887"
       cx="105.87002"
       cy="54.592983"
       fx="105.87002"
       fy="54.592983"
       r="15.65472"
       gradientTransform="matrix(4.3802372,0,0,4.5665992,-375.32828,-115.73072)"
       gradientUnits="userSpaceOnUse" />
    <linearGradient
       inkscape:collect="always"
       xlink:href="#linearGradient2382"
       id="linearGradient2384"
       x1="24.93483"
       y1="140.12325"
       x2="188.15705"
       y2="140.12325"
       gradientUnits="userSpaceOnUse" />
    <linearGradient
       inkscape:collect="always"
       xlink:href="#linearGradient2398"
       id="linearGradient2400"
       x1="52.066472"
       y1="136.65192"
       x2="174.77669"
       y2="136.65192"
       gradientUnits="userSpaceOnUse" />
    <linearGradient
       inkscape:collect="always"
       xlink:href="#linearGradient2409"
       id="linearGradient2415"
       gradientUnits="userSpaceOnUse"
       x1="102.79238"
       y1="100.04064"
       x2="234.19505"
       y2="100.04064"
       gradientTransform="translate(-61.647917,44.185417)" />
    <linearGradient
       inkscape:collect="always"
       xlink:href="#linearGradient2428"
       id="linearGradient2434"
       gradientUnits="userSpaceOnUse"
       x1="85.908441"
       y1="17.688189"
       x2="151.49689"
       y2="17.688189"
       gradientTransform="translate(-12.170833,100.54167)" />
    <linearGradient
       inkscape:collect="always"
       xlink:href="#linearGradient2456"
       id="linearGradient2462"
       gradientUnits="userSpaceOnUse"
       x1="87.284279"
       y1="87.929788"
       x2="180.98206"
       y2="87.929788"
       gradientTransform="translate(-23.01875,53.18125)" />
  </defs>
  <sodipodi:namedview
     id="base"
     pagecolor="#ffffff"
     bordercolor="#666666"
     borderopacity="1.0"
     inkscape:pageopacity="0.0"
     inkscape:pageshadow="2"
     inkscape:zoom="1"
     inkscape:cx="465.32387"
     inkscape:cy="747.61335"
     inkscape:document-units="mm"
     inkscape:current-layer="text903"
     showgrid="false"
     inkscape:window-width="2560"
     inkscape:window-height="1377"
     inkscape:window-x="1432"
     inkscape:window-y="819"
     inkscape:window-maximized="1"
     showguides="false" />
  <metadata
     id="metadata5">
    <rdf:RDF>
      <cc:Work
         rdf:about="">
        <dc:format>image/svg+xml</dc:format>
        <dc:type
           rdf:resource="http://purl.org/dc/dcmitype/StillImage" />
        <dc:title></dc:title>
      </cc:Work>
    </rdf:RDF>
  </metadata>
  <g
     inkscape:label="Layer 1"
     inkscape:groupmode="layer"
     id="layer1"
     style="display:inline"
     sodipodi:insensitive="true" />
  <g
     inkscape:groupmode="layer"
     id="layer2"
     inkscape:label="Layer 2"
     style="display:inline">
    <text
       xml:space="preserve"
       style="font-style:normal;font-variant:normal;font-weight:normal;font-stretch:normal;font-size:50.79999924px;line-height:1.25;font-family:'Times New Roman';-inkscape-font-specification:'Times New Roman, ';letter-spacing:0px;word-spacing:0px;fill:#000000;fill-opacity:1;stroke:none;stroke-width:0.26458332"
       x="61.118748"
       y="107.55833"
       id="text853"><tspan
         sodipodi:role="line"
         id="tspan851"
         x="61.118748"
         y="152.64946"
         style="stroke-width:0.26458332" /></text>
    <g
       aria-label="D"
       style="font-style:normal;font-variant:normal;font-weight:normal;font-stretch:normal;font-size:50.79999924px;line-height:1.25;font-family:'Sitka Text';-inkscape-font-specification:'Sitka Text';letter-spacing:0px;word-spacing:0px;fill:#000000;fill-opacity:1;stroke:none;stroke-width:0.26458332"
       id="text864">
      <g
         aria-label="D "
         style="font-style:normal;font-variant:normal;font-weight:normal;font-stretch:normal;font-size:254px;line-height:1.25;font-family:'Sitka Text';-inkscape-font-specification:'Sitka Text';letter-spacing:0px;word-spacing:0px;fill:#000000;fill-opacity:1;stroke:none;stroke-width:0.07000434"
         id="text903">
        <path
           d="m 28.93483,212.59791 17.384889,-5.53155 q 1.806222,-0.56445 3.048,-1.80622 1.241777,-1.35467 1.241777,-3.83823 V 78.598805 q 0,-2.370666 -1.241777,-3.612444 -1.241778,-1.241778 -3.048,-1.806222 L 28.93483,67.422805 v -8.240889 h 74.05511 q 8.01511,0 17.15911,1.580445 9.144,1.467555 18.17511,5.192889 9.03111,3.612444 17.272,9.708444 8.35378,5.983111 14.67556,15.127111 6.32178,9.031111 10.04711,21.448885 3.83822,12.30489 3.83822,28.56089 0,20.77156 -6.43466,35.89867 -6.32178,15.12711 -17.49778,25.06133 -11.06311,9.82133 -25.96445,14.56267 -14.78844,4.74133 -31.72177,4.74133 H 28.93483 Z m 74.168,-5.08 q 14.224,0 24.49689,-4.17689 10.38578,-4.28977 17.04622,-12.30488 6.77333,-8.128 9.93422,-19.86845 3.27378,-11.85333 3.27378,-26.98044 0,-16.48178 -4.40267,-29.68978 -4.28977,-13.32089 -12.41777,-22.577776 -8.01511,-9.256889 -19.52978,-14.224 -11.40178,-4.967111 -25.400001,-4.967111 H 74.316163 V 207.51791 Z"
           style="fill:none;stroke:url(#linearGradient2384);stroke-width:5;stroke-miterlimit:4;stroke-dasharray:none;stroke-opacity:1"
           id="path905"
           inkscape:connector-curvature="0" />
      </g>
    </g>
  </g>
  <g
     inkscape:groupmode="layer"
     id="layer5"
     inkscape:label="Layer 3"
     style="display:none"
     sodipodi:insensitive="true">
    <g
       aria-label="a"
       style="font-style:normal;font-variant:normal;font-weight:normal;font-stretch:normal;font-size:254px;line-height:1.25;font-family:'Sitka Text';-inkscape-font-specification:'Sitka Text';letter-spacing:0px;word-spacing:0px;fill:#000000;fill-opacity:1;stroke:none;stroke-width:0.26458332"
       id="text2391"
       transform="translate(-4.2333333,0.79375)">
      <path
         d="m 129.16958,179.60614 q -4.74133,6.66044 -10.27289,10.72444 -5.53155,3.95111 -11.176,6.20889 -5.64444,2.14489 -11.063107,2.82222 -5.305778,0.79023 -9.708444,0.79023 -8.240889,0 -14.675556,-2.82223 -6.434667,-2.93511 -10.950222,-7.56355 -4.402667,-4.74133 -6.886222,-10.83733 -2.370667,-6.096 -2.370667,-12.75645 0,-7.78933 2.709333,-13.77244 2.822223,-6.096 7.337778,-10.72445 4.515556,-4.62844 10.498667,-7.78933 5.983111,-3.27378 12.417778,-5.30578 6.434666,-2.032 12.982222,-2.93511 6.54756,-0.90311 12.30489,-0.90311 1.24178,0 3.83822,0.22578 2.59645,0.11289 5.41867,0.45155 2.93511,0.33867 5.41866,0.67734 2.59645,0.22577 3.72534,0.33866 l 0.11289,-16.70755 q 0,-6.43467 -1.69334,-10.724448 -1.69333,-4.289778 -4.62844,-6.886222 -2.93511,-2.596444 -7.112,-3.725333 -4.17689,-1.128889 -9.25689,-1.128889 -5.75733,0 -11.627556,2.032 -5.757333,2.032 -11.063111,4.967111 -5.192889,2.822222 -9.708444,5.983111 -4.515556,3.048 -7.563556,5.08 H 61.662028 L 60.871805,83.311917 q 4.854223,-1.806223 9.821334,-3.612445 5.08,-1.919111 10.724444,-3.273778 5.644445,-1.467555 11.966222,-2.370666 6.434667,-0.903111 14.111115,-0.903111 8.24089,0 16.14311,1.693333 7.90222,1.693333 13.99822,6.096 6.20889,4.289778 9.93422,11.853333 3.83822,7.563557 3.83822,19.303997 l -0.22577,62.65334 q 0,2.14489 0.90311,3.95111 0.90311,1.69333 2.37066,2.93511 1.58045,1.24178 3.49956,1.91911 2.032,0.67733 3.95111,0.67733 1.24178,0 2.48356,-0.22577 1.35466,-0.33867 2.82222,-0.79023 1.58044,-0.56444 2.93511,-1.24177 1.46756,-0.67734 2.82222,-1.24178 h 1.80622 v 9.48266 q -1.69333,1.24178 -4.51555,2.93512 -2.70933,1.69333 -5.98311,3.27377 -3.16089,1.46756 -6.54756,2.59645 -3.27378,1.12889 -5.98311,1.12889 -5.30578,0 -9.25689,-1.24178 -3.95111,-1.24178 -6.66044,-3.72533 -2.59645,-2.59645 -3.95111,-6.43467 -1.24178,-3.83822 -1.24178,-9.144 z m -0.45155,-42.78489 q -11.74045,0 -21.56178,1.016 -9.708445,1.016 -16.594667,3.83822 -6.886222,2.70934 -10.724444,7.67645 -3.725334,4.96711 -3.725334,12.75644 0,6.32178 2.032,10.61156 2.032,4.17689 5.192889,6.66044 3.160889,2.48356 6.999111,3.49956 3.951111,1.016 7.676445,1.016 3.72533,0 8.01511,-0.79023 4.40267,-0.79022 8.57956,-2.37066 4.17689,-1.58045 7.90222,-3.95111 3.72533,-2.48356 6.20889,-5.87023 z"
         style="fill:none;stroke:url(#linearGradient2400);stroke-width:5;stroke-miterlimit:4;stroke-dasharray:none"
         id="path2393"
         inkscape:connector-curvature="0" />
    </g>
  </g>
  <g
     inkscape:groupmode="layer"
     id="layer6"
     inkscape:label="Layer 4"
     style="display:none"
     sodipodi:insensitive="true">
    <g
       aria-label="v"
       style="font-style:normal;font-variant:normal;font-weight:normal;font-stretch:normal;font-size:254px;line-height:1.25;font-family:'Sitka Text';-inkscape-font-specification:'Sitka Text';letter-spacing:0px;word-spacing:0px;fill:none;fill-opacity:1;stroke:url(#linearGradient2415);stroke-width:5;stroke-miterlimit:4;stroke-dasharray:none"
       id="text2405">
      <path
         d="m 56.045803,100.65094 c -0.602074,-1.429927 -1.429926,-2.596445 -2.483555,-3.499556 -0.978371,-0.903111 -2.06963,-1.580445 -3.273778,-2.032 l -9.144,-4.064 v -8.128 H 69.85 94.99247 v 8.128 l -16.820445,5.531555 27.319115,63.669331 5.08,17.15911 h 1.80622 l 30.59289,-77.441774 -15.69156,-8.918222 v -8.128 h 45.26845 v 8.128 l -9.59556,6.773333 c -1.20415,0.752593 -2.37066,1.618074 -3.49955,2.596443 -1.12889,0.90311 -1.95675,1.95674 -2.48356,3.16089 l -31.72178,76.76444 -12.30489,25.17423 h -12.53066 z"
         style="fill:none;stroke:url(#linearGradient2415);stroke-width:5;stroke-miterlimit:4;stroke-dasharray:none"
         id="path2436"
         inkscape:connector-curvature="0"
         sodipodi:nodetypes="cccccccccccccccccccccccc" />
    </g>
  </g>
  <g
     inkscape:groupmode="layer"
     id="layer7"
     inkscape:label="Layer 5"
     style="display:none"
     sodipodi:insensitive="true">
    <g
       aria-label="i"
       style="font-style:normal;font-variant:normal;font-weight:normal;font-stretch:normal;font-size:254px;line-height:1.25;font-family:'Sitka Text';-inkscape-font-specification:'Sitka Text';letter-spacing:0px;word-spacing:0px;fill:none;fill-opacity:1;stroke:url(#linearGradient2434);stroke-width:5;stroke-miterlimit:4;stroke-dasharray:none"
       id="text2424">
      <path
         d="m 104.66917,60.43075 q -3.16089,0 -6.208892,-1.016 -2.935111,-1.016 -5.192889,-2.822222 -2.144888,-1.919111 -3.499555,-4.628445 -1.354667,-2.709333 -1.354667,-6.208889 0,-3.499555 1.354667,-6.321777 1.354667,-2.822223 3.499555,-4.741334 2.257778,-1.919111 5.192889,-2.935111 3.048002,-1.016 6.208892,-1.016 3.83822,0 6.88622,0.903111 3.16089,0.903111 5.30578,2.709334 2.25777,1.806222 3.49955,4.515555 1.24178,2.596445 1.24178,5.983111 0,3.612445 -1.35467,6.547556 -1.24177,2.822222 -3.49955,4.854222 -2.25778,2.032 -5.41867,3.160889 -3.048,1.016 -6.66044,1.016 z m -30.931558,137.04711 17.046222,-4.51555 q 2.032,-0.56445 3.273778,-1.80623 1.354666,-1.35466 1.354666,-3.72533 v -78.68356 q 0,-2.37066 -1.354666,-3.72533 -1.354667,-1.46755 -3.612445,-2.14489 L 73.963389,97.345417 v -8.128 l 44.026671,-6.096 V 187.43075 q 0,2.37067 1.35466,3.72533 1.35467,1.35467 3.048,1.80623 l 16.93334,4.51555 v 8.24089 H 73.737612 Z"
         style="fill:none;stroke:url(#linearGradient2434);stroke-width:5;stroke-miterlimit:4;stroke-dasharray:none"
         id="path2439"
         inkscape:connector-curvature="0" />
    </g>
  </g>
  <g
     inkscape:groupmode="layer"
     id="layer9"
     inkscape:label="Layer 6"
     sodipodi:insensitive="true"
     style="display:none">
    <g
       aria-label="s"
       style="font-style:normal;font-variant:normal;font-weight:normal;font-stretch:normal;font-size:254px;line-height:1.25;font-family:'Sitka Text';-inkscape-font-specification:'Sitka Text';letter-spacing:0px;word-spacing:0px;fill:none;fill-opacity:1;stroke:url(#linearGradient2462);stroke-width:5;stroke-miterlimit:4;stroke-dasharray:none;stroke-opacity:1"
       id="text2446">
      <path
         d="m 64.26553,168.03503 h 13.320888 l 3.612445,10.95022 q 0.790222,2.25778 2.144889,3.83823 1.467555,1.58044 3.048,2.48355 2.370666,1.35467 5.08,2.37067 2.709333,1.016 5.644444,1.80622 3.048004,0.79022 6.208894,1.24178 3.16088,0.45155 6.32177,0.45155 4.62845,0 9.36978,-1.016 4.85422,-1.016 8.80533,-3.27377 3.95112,-2.37067 6.32178,-5.87023 2.48356,-3.61244 2.48356,-8.57955 0,-4.17689 -1.35467,-7.112 -1.24178,-2.93511 -3.72533,-5.08 -2.48356,-2.14489 -6.096,-3.61245 -3.61245,-1.58044 -8.24089,-2.93511 -6.43467,-1.80622 -12.75645,-3.61244 -6.208885,-1.80622 -12.304885,-3.61245 -6.434667,-1.91911 -11.288889,-5.08 -4.854222,-3.16088 -8.240889,-7.33777 -3.273777,-4.28978 -4.967111,-9.25689 -1.693333,-5.08 -1.693333,-10.72445 0,-8.01511 4.064,-14.675553 4.176889,-6.773333 11.063111,-11.627555 6.999111,-4.967111 16.030222,-7.676445 9.031114,-2.709333 18.965334,-2.709333 5.19289,0 9.82133,0.338667 4.62845,0.338666 8.80534,1.128889 4.28977,0.677333 8.24089,1.693333 4.064,0.903111 8.35377,2.144889 l 0.45156,29.238218 h -13.43378 l -3.72533,-11.74044 q -0.67734,-1.806223 -2.14489,-3.273778 -1.46756,-1.467556 -3.048,-2.257778 -3.95111,-1.919111 -8.57956,-2.822222 -4.62844,-0.903111 -9.70844,-0.903111 -5.19289,0 -9.59556,1.128889 -4.289775,1.016 -7.563553,3.048 -3.273777,2.032 -5.08,5.19289 -1.806222,3.048 -1.806222,7.112 0,4.28978 1.241778,7.45067 1.354667,3.048 4.064,5.53155 2.709333,2.48356 6.773333,4.40267 4.064004,1.80622 9.595554,3.49955 2.59645,0.79023 5.30578,1.69334 2.70933,0.79022 5.30578,1.58044 2.70933,0.67733 5.30578,1.58045 2.59644,0.79022 5.08,1.46755 6.99911,2.14489 12.30488,4.85422 5.30578,2.70934 8.80534,6.43467 3.61244,3.61244 5.30578,8.46667 1.80622,4.74133 1.80622,11.06311 0,9.144 -4.40267,16.48178 -4.40267,7.33777 -11.62755,12.53066 -7.22489,5.08 -16.59467,7.67645 -9.36978,2.70933 -19.07822,2.70933 -6.321782,0 -12.079115,-0.67733 -5.757333,-0.67734 -10.950222,-1.91911 -5.192889,-1.12889 -9.934222,-2.48356 -4.741334,-1.46756 -9.031111,-2.93511 z"
         style="fill:none;stroke:url(#linearGradient2462);stroke-width:5;stroke-miterlimit:4;stroke-dasharray:none;stroke-opacity:1"
         id="path2464"
         inkscape:connector-curvature="0" />
    </g>
  </g>
  <text
     xml:space="preserve"
     style="font-style:normal;font-variant:normal;font-weight:normal;font-stretch:normal;font-size:254px;line-height:1.25;font-family:'Sitka Text';-inkscape-font-specification:'Sitka Text';letter-spacing:0px;word-spacing:0px;fill:#000000;fill-opacity:1;stroke:none;stroke-width:0.26458332"
     x="77.787498"
     y="72.368752"
     id="text2419"><tspan
       sodipodi:role="line"
       id="tspan2417"
       x="77.787498"
       y="296.36853"
       style="stroke-width:0.26458332"></tspan></text>
</svg>
