<?xml version="1.0" encoding="UTF-8" standalone="no"?>
<!-- Created with Inkscape (http://www.inkscape.org/) -->

<svg
   xmlns:dc="http://purl.org/dc/elements/1.1/"
   xmlns:cc="http://creativecommons.org/ns#"
   xmlns:rdf="http://www.w3.org/1999/02/22-rdf-syntax-ns#"
   xmlns:svg="http://www.w3.org/2000/svg"
   xmlns="http://www.w3.org/2000/svg"
   xmlns:sodipodi="http://sodipodi.sourceforge.net/DTD/sodipodi-0.dtd"
   xmlns:inkscape="http://www.inkscape.org/namespaces/inkscape"
   width="417mm"
   height="210mm"
   viewBox="0 0 417 210"
   version="1.1"
   id="svg6177"
   inkscape:version="0.92.4 (5da689c313, 2019-01-14)"
   sodipodi:docname="DavisKnightInkscape.svg">
  <defs
     id="defs6171" />
  <sodipodi:namedview
     id="base"
     pagecolor="#ffffff"
     bordercolor="#666666"
     borderopacity="1.0"
     inkscape:pageopacity="0.0"
     inkscape:pageshadow="2"
     inkscape:zoom="0.7"
     inkscape:cx="629.42093"
     inkscape:cy="485.32146"
     inkscape:document-units="mm"
     inkscape:current-layer="layer1"
     showgrid="false"
     units="mm"
     width="298mm"
     inkscape:window-width="2560"
     inkscape:window-height="1377"
     inkscape:window-x="1432"
     inkscape:window-y="819"
     inkscape:window-maximized="1" />
  <metadata
     id="metadata6174">
    <rdf:RDF>
      <cc:Work
         rdf:about="">
        <dc:format>image/svg+xml</dc:format>
        <dc:type
           rdf:resource="http://purl.org/dc/dcmitype/StillImage" />
        <dc:title></dc:title>
      </cc:Work>
    </rdf:RDF>
  </metadata>
  <g
     inkscape:label="Layer 1"
     inkscape:groupmode="layer"
     id="layer1"
     transform="translate(0,-87)">
    <text
       xml:space="preserve"
       style="font-style:normal;font-variant:normal;font-weight:normal;font-stretch:normal;font-size:50.79999924px;line-height:1.25;font-family:'Times New Roman';-inkscape-font-specification:'Times New Roman, ';letter-spacing:0px;word-spacing:0px;fill:#000000;fill-opacity:1;stroke:none;stroke-width:0.26458332;"
       x="24.054256"
       y="176.72871"
       id="text6724"><tspan
         sodipodi:role="line"
         id="tspan6722"
         x="24.054256"
         y="233.87871"
         style="stroke-width:0.26458332;-inkscape-font-specification:'Times New Roman, ';font-family:'Times New Roman';font-weight:normal;font-style:normal;font-stretch:normal;font-variant:normal;" /></text>
    <text
       xml:space="preserve"
       style="font-style:normal;font-variant:normal;font-weight:normal;font-stretch:normal;font-size:50.79999924px;line-height:1.25;font-family:'Javanese Text';-inkscape-font-specification:'Javanese Text';letter-spacing:0px;word-spacing:0px;fill:#000000;fill-opacity:1;stroke:none;stroke-width:0.26458332;"
       x="44.901279"
       y="143.05275"
       id="text6728"><tspan
         sodipodi:role="line"
         id="tspan6726"
         x="44.901279"
         y="200.20274"
         style="stroke-width:0.26458332;-inkscape-font-specification:'Javanese Text';font-family:'Javanese Text';font-weight:normal;font-style:normal;font-stretch:normal;font-variant:normal;" /></text>
    <text
       xml:space="preserve"
       style="font-style:normal;font-variant:normal;font-weight:normal;font-stretch:normal;font-size:50.79999924px;line-height:1.25;font-family:'Javanese Text';-inkscape-font-specification:'Javanese Text';letter-spacing:0px;word-spacing:0px;fill:#000000;fill-opacity:1;stroke:none;stroke-width:0.26458332;"
       x="32.60688"
       y="131.29289"
       id="text6740"><tspan
         sodipodi:role="line"
         id="tspan6738"
         x="32.60688"
         y="178.19751"
         style="stroke-width:0.26458332;-inkscape-font-specification:'Javanese Text';font-family:'Javanese Text';font-weight:normal;font-style:normal;font-stretch:normal;font-variant:normal;"></tspan></text>
    <g
       aria-label="DAVIS
KNIGHT"
       style="font-style:normal;font-variant:normal;font-weight:normal;font-stretch:normal;font-size:88.19444275px;line-height:1.25;font-family:'Javanese Text';-inkscape-font-specification:'Javanese Text';text-align:center;letter-spacing:0px;word-spacing:0px;text-anchor:middle;fill:#000000;fill-opacity:1;stroke:none;stroke-width:0.26458332"
       id="text6744">
      <path
         d="m 83.451661,165.03371 v -3.4451 h 8.612738 v -55.68135 h -8.612738 v -3.4451 h 26.010469 q 8.69887,0 14.55553,2.15319 5.89973,2.15318 9.47401,6.1581 3.57429,3.96186 5.08152,9.60321 1.55029,5.64134 1.55029,12.61766 0,4.04799 -0.55983,8.00985 -0.51676,3.91879 -1.85174,7.49308 -1.33497,3.53122 -3.61735,6.58874 -2.23931,3.01446 -5.72747,5.25377 -3.48816,2.19625 -8.31129,3.4451 -4.82313,1.24885 -11.23962,1.24885 z m 17.010159,-3.4451 h 7.79453 q 6.63181,0 10.98124,-1.29191 4.3925,-1.29191 6.93325,-4.52169 2.54076,-3.22977 3.57429,-8.74193 1.03353,-5.51215 1.03353,-13.95263 0,-4.60782 -0.34451,-8.44049 -0.30145,-3.83267 -1.16272,-6.84712 -0.86127,-3.01446 -2.41157,-5.25377 -1.50723,-2.23932 -3.91879,-3.70348 -2.36851,-1.46417 -5.77054,-2.19625 -3.40203,-0.73208 -8.00984,-0.73208 h -8.69887 z"
         style="font-size:88.19444275px;text-align:center;text-anchor:middle;stroke-width:0.26458332"
         id="path6748" />
      <path
         d="m 163.11949,161.58861 v 3.4451 h -20.97201 v -3.4451 h 8.1821 l 22.39312,-59.7724 h 3.40203 l 21.01508,59.7724 h 8.52661 v 3.4451 h -26.48417 v -3.4451 h 8.95725 l -6.45955,-18.3882 h -20.32607 l -6.84712,18.3882 z m 8.65581,-46.16428 -9.08644,24.28793 h 17.7853 l -8.52661,-24.28793 z"
         style="font-size:88.19444275px;text-align:center;text-anchor:middle;stroke-width:0.26458332"
         id="path6750" />
      <path
         d="m 229.09307,152.07154 h 0.17226 l 17.26854,-46.16428 h -8.61274 v -3.4451 h 20.54138 v 3.4451 h -7.75146 l -22.39312,59.7724 h -3.40204 l -21.01508,-59.7724 h -8.52661 v -3.4451 h 26.48417 v 3.4451 h -8.95725 z"
         style="font-size:88.19444275px;text-align:center;text-anchor:middle;stroke-width:0.26458332"
         id="path6752" />
      <path
         d="m 277.02296,105.90726 v 55.68135 h 8.61274 v 3.4451 h -25.6229 v -3.4451 h 8.61274 v -55.68135 h -8.61274 v -3.4451 h 25.6229 v 3.4451 z"
         style="font-size:88.19444275px;text-align:center;text-anchor:middle;stroke-width:0.26458332"
         id="path6754" />
      <path
         d="m 293.17185,146.301 h 3.01446 q 0.4737,4.90926 1.8948,8.1821 1.4211,3.27284 3.48816,5.21071 2.11012,1.93786 4.78007,2.75608 2.71301,0.77514 5.72747,0.77514 3.61735,0 6.15811,-0.90434 2.58382,-0.90433 4.22024,-2.49769 1.67948,-1.63642 2.41157,-3.87573 0.77514,-2.28238 0.77514,-4.99539 0,-3.35897 -1.11965,-5.51215 -1.11966,-2.19625 -3.14365,-3.70348 -1.98093,-1.55029 -4.78007,-2.66995 -2.79914,-1.11966 -6.15811,-2.32544 -3.35897,-1.20578 -6.41649,-2.54076 -3.01446,-1.33497 -5.3399,-3.3159 -2.32544,-1.98093 -3.70348,-4.82314 -1.33497,-2.88526 -1.33497,-7.14857 0,-4.00492 1.29191,-7.32083 1.29191,-3.3159 3.83267,-5.64134 2.54076,-2.3685 6.2873,-3.66041 3.7896,-1.29191 8.78499,-1.29191 1.98093,0 4.09105,0.21531 2.11012,0.17226 4.17718,0.55983 2.11012,0.38758 4.13411,0.9474 2.024,0.51677 3.83267,1.16272 l 0.51677,15.63212 h -3.01446 q -0.38757,-4.65088 -1.72255,-7.57921 -1.33497,-2.92833 -3.27284,-4.56475 -1.8948,-1.67948 -4.2633,-2.28237 -2.32544,-0.64596 -4.78007,-0.64596 -3.27285,0 -5.68441,0.81821 -2.41157,0.77515 -4.00493,2.28238 -1.59335,1.46416 -2.41156,3.61735 -0.77515,2.11012 -0.77515,4.78007 0,3.18671 1.11966,5.29683 1.11965,2.11012 3.14365,3.66042 2.06705,1.50722 4.90926,2.71301 2.88527,1.16272 6.33036,2.45463 3.14365,1.20578 6.15811,2.58382 3.05752,1.33497 5.42602,3.40203 2.41157,2.024 3.87574,5.03845 1.46416,2.9714 1.46416,7.40696 0,4.30637 -1.50723,7.66534 -1.46416,3.35896 -4.2633,5.64134 -2.75608,2.28238 -6.761,3.48816 -4.00493,1.20578 -9.04338,1.20578 -2.19625,0 -4.56475,-0.21532 -2.32544,-0.21531 -4.65088,-0.64595 -2.28237,-0.43064 -4.47862,-0.99047 -2.19625,-0.55982 -4.09105,-1.29191 z"
         style="font-size:88.19444275px;text-align:center;text-anchor:middle;stroke-width:0.26458332"
         id="path6756" />
      <path
         d="m 53.953031,242.97899 26.35498,-26.82868 h -6.502617 v -3.4451 h 20.282999 v 3.4451 h -8.74193 l -23.771158,23.90035 28.077528,31.781 h 6.717936 v 3.4451 H 72.59961 v -3.4451 h 6.459554 z m -1.722547,28.85267 h 8.182101 v 3.4451 h -25.19226 v -3.4451 h 8.612739 v -55.68135 h -8.612739 v -3.4451 h 25.19226 v 3.4451 h -8.182101 z"
         style="font-size:88.19444275px;text-align:center;text-anchor:middle;stroke-width:0.26458332"
         id="path6758" />
      <path
         d="m 152.78421,275.92272 h -3.4451 l -37.25009,-57.74842 -0.21532,0.0431 v 53.61429 h 7.75147 v 3.4451 H 99.385231 v -3.4451 h 8.612739 v -55.68135 h -8.612739 v -3.4451 H 118.6347 l 30.05846,46.59492 0.21532,-0.0431 v -43.10676 h -8.61274 v -3.4451 h 21.10121 v 3.4451 h -8.61274 z"
         style="font-size:88.19444275px;text-align:center;text-anchor:middle;stroke-width:0.26458332"
         id="path6760" />
      <path
         d="m 183.14412,216.15031 v 55.68135 h 8.61274 v 3.4451 h -25.6229 v -3.4451 h 8.61274 v -55.68135 h -8.61274 v -3.4451 h 25.6229 v 3.4451 z"
         style="font-size:88.19444275px;text-align:center;text-anchor:middle;stroke-width:0.26458332"
         id="path6762" />
      <path
         d="m 247.56739,272.736 q -2.06706,1.03353 -4.47862,1.80868 -2.41157,0.77514 -4.8662,1.24884 -2.45463,0.47371 -4.8662,0.68902 -2.41157,0.25839 -4.47862,0.25839 -6.71794,0 -12.01477,-2.23932 -5.29684,-2.23931 -9.00031,-6.37342 -3.66042,-4.17718 -5.59828,-10.11997 -1.93787,-5.94279 -1.93787,-13.39281 0,-7.62227 2.11012,-13.78038 2.11012,-6.15811 6.02892,-10.50754 3.91879,-4.3925 9.43095,-6.71794 5.55521,-2.3685 12.40234,-2.3685 3.9188,0 8.35436,0.77515 4.43556,0.73208 8.44048,2.02399 l 0.51676,15.71825 H 244.596 q -0.38758,-4.69395 -1.72255,-7.62228 -1.33498,-2.97139 -3.31591,-4.60781 -1.98093,-1.63642 -4.52168,-2.23931 -2.4977,-0.6029 -5.29684,-0.6029 -2.92833,0 -5.55521,0.51677 -2.58383,0.51676 -4.82314,1.80867 -2.23931,1.29191 -4.04799,3.4451 -1.76561,2.15318 -3.05752,5.46909 -1.24884,3.3159 -1.93786,7.88065 -0.64596,4.52169 -0.64596,10.55061 0,5.94279 0.60289,10.42141 0.64596,4.43556 1.80868,7.62228 1.20578,3.18671 2.88526,5.29683 1.72255,2.11012 3.83267,3.3159 2.11012,1.20579 4.60782,1.72255 2.49769,0.4737 5.29683,0.4737 2.75608,0 5.38296,-0.21532 2.66995,-0.25838 5.08152,-1.16272 v -19.07721 h -9.47401 v -3.4451 h 25.62289 v 3.4451 h -7.75146 z"
         style="font-size:88.19444275px;text-align:center;text-anchor:middle;stroke-width:0.26458332"
         id="path6764" />
      <path
         d="m 270.34809,271.83166 v -55.68135 h -8.61274 v -3.4451 h 25.6229 v 3.4451 h -8.61274 v 24.93388 h 28.80961 v -24.93388 h -8.61273 v -3.4451 h 25.62289 v 3.4451 h -8.61274 v 55.68135 h 8.61274 v 3.4451 h -25.62289 v -3.4451 h 8.61273 v -27.21625 h -28.80961 v 27.21625 h 8.61274 v 3.4451 h -25.6229 v -3.4451 z"
         style="font-size:88.19444275px;text-align:center;text-anchor:middle;stroke-width:0.26458332"
         id="path6766" />
      <path
         d="m 331.58467,212.70521 h 50.47065 l 1.03352,18.56046 h -3.01445 q -0.6029,-4.82314 -1.5503,-7.79453 -0.9474,-2.9714 -2.71301,-4.56475 -1.72255,-1.63642 -4.47862,-2.19625 -2.75608,-0.55983 -6.93326,-0.55983 h -3.48816 v 55.68135 h 9.47401 v 3.4451 h -27.34544 v -3.4451 h 9.47401 v -55.68135 h -3.27284 q -2.79914,0 -4.95232,0.21532 -2.15319,0.21532 -3.78961,0.81821 -1.59335,0.60289 -2.75607,1.67948 -1.16272,1.07659 -1.98093,2.75608 -0.81821,1.67948 -1.42111,4.04799 -0.55982,2.3685 -0.99046,5.59828 h -3.01446 z"
         style="font-size:88.19444275px;text-align:center;text-anchor:middle;stroke-width:0.26458332"
         id="path6768" />
    </g>
  </g>
</svg>
