<?xml version="1.0" encoding="UTF-8" standalone="no"?>
<svg
   xmlns:dc="http://purl.org/dc/elements/1.1/"
   xmlns:cc="http://creativecommons.org/ns#"
   xmlns:rdf="http://www.w3.org/1999/02/22-rdf-syntax-ns#"
   xmlns:svg="http://www.w3.org/2000/svg"
   xmlns="http://www.w3.org/2000/svg"
   id="svg6177"
   version="1.1"
   viewBox="0 0 417 210"
   height="210mm"
   width="417mm">
  <defs
     id="defs6171" />
  <metadata
     id="metadata6174">
    <rdf:RDF>
      <cc:Work
         rdf:about="">
        <dc:format>image/svg+xml</dc:format>
        <dc:type
           rdf:resource="http://purl.org/dc/dcmitype/StillImage" />
        <dc:title></dc:title>
      </cc:Work>
    </rdf:RDF>
  </metadata>
  <g
     transform="translate(0,-87)"
     id="layer1">
    <text
       id="text6724"
       y="176.72871"
       x="24.054256"
       style="font-style:normal;font-variant:normal;font-weight:normal;font-stretch:normal;font-size:50.79999924px;line-height:1.25;font-family:'Times New Roman';-inkscape-font-specification:'Times New Roman, ';letter-spacing:0px;word-spacing:0px;fill:#000000;fill-opacity:1;stroke:none;stroke-width:0.26458332;"
       xml:space="preserve"><tspan
         style="stroke-width:0.26458332;-inkscape-font-specification:'Times New Roman, ';font-family:'Times New Roman';font-weight:normal;font-style:normal;font-stretch:normal;font-variant:normal;"
         y="233.87871"
         x="24.054256"
         id="tspan6722" /></text>
    <text
       id="text6728"
       y="143.05275"
       x="44.901279"
       style="font-style:normal;font-variant:normal;font-weight:normal;font-stretch:normal;font-size:50.79999924px;line-height:1.25;font-family:'Javanese Text';-inkscape-font-specification:'Javanese Text';letter-spacing:0px;word-spacing:0px;fill:#000000;fill-opacity:1;stroke:none;stroke-width:0.26458332;"
       xml:space="preserve"><tspan
         style="stroke-width:0.26458332;-inkscape-font-specification:'Javanese Text';font-family:'Javanese Text';font-weight:normal;font-style:normal;font-stretch:normal;font-variant:normal;"
         y="200.20274"
         x="44.901279"
         id="tspan6726" /></text>
    <text
       id="text6740"
       y="131.29289"
       x="32.60688"
       style="font-style:normal;font-variant:normal;font-weight:normal;font-stretch:normal;font-size:50.79999924px;line-height:1.25;font-family:'Javanese Text';-inkscape-font-specification:'Javanese Text';letter-spacing:0px;word-spacing:0px;fill:#000000;fill-opacity:1;stroke:none;stroke-width:0.26458332;"
       xml:space="preserve"><tspan
         style="stroke-width:0.26458332;-inkscape-font-specification:'Javanese Text';font-family:'Javanese Text';font-weight:normal;font-style:normal;font-stretch:normal;font-variant:normal;"
         y="178.19751"
         x="32.60688"
         id="tspan6738"></tspan></text>
    <g
       id="text6744"
       style="font-style:normal;font-variant:normal;font-weight:normal;font-stretch:normal;font-size:88.19444275px;line-height:1.25;font-family:'Javanese Text';-inkscape-font-specification:'Javanese Text';text-align:center;letter-spacing:0px;word-spacing:0px;text-anchor:middle;fill:none;fill-opacity:1;stroke:#000000;stroke-width:2;stroke-opacity:1;stroke-miterlimit:4;stroke-dasharray:none"
       aria-label="DAVIS
KNIGHT">
      <path
         id="path6771"
         style="font-size:88.19444275px;text-align:center;text-anchor:middle;stroke-width:2;fill:none;stroke:#000000;stroke-opacity:1;stroke-miterlimit:4;stroke-dasharray:none"
         d="m 86.097489,163.89978 v -3.4451 h 8.612739 v -55.68135 h -8.612739 v -3.4451 h 26.010471 q 8.69887,0 14.55553,2.15319 5.89972,2.15318 9.47401,6.15811 3.57429,3.96186 5.08152,9.6032 1.55029,5.64134 1.55029,12.61766 0,4.04799 -0.55983,8.00985 -0.51676,3.9188 -1.85174,7.49308 -1.33497,3.53123 -3.61735,6.58875 -2.23931,3.01446 -5.72747,5.25377 -3.48816,2.19625 -8.31129,3.44509 -4.82314,1.24885 -11.23963,1.24885 z m 17.010161,-3.4451 h 7.79453 q 6.6318,0 10.98124,-1.29191 4.39249,-1.29191 6.93325,-4.52168 2.54076,-3.22978 3.57429,-8.74193 1.03353,-5.51216 1.03353,-13.95264 0,-4.60781 -0.34451,-8.44048 -0.30145,-3.83267 -1.16272,-6.84713 -0.86128,-3.01446 -2.41157,-5.25377 -1.50723,-2.23931 -3.91879,-3.70348 -2.36851,-1.46416 -5.77054,-2.19625 -3.40203,-0.73208 -8.00985,-0.73208 h -8.69886 z" />
      <path
         id="path6773"
         style="font-size:88.19444275px;text-align:center;text-anchor:middle;stroke-width:2;fill:none;stroke:#000000;stroke-opacity:1;stroke-miterlimit:4;stroke-dasharray:none"
         d="m 165.76532,160.45468 v 3.4451 H 144.7933 v -3.4451 h 8.18211 l 22.39312,-59.7724 h 3.40203 l 21.01508,59.7724 h 8.52661 v 3.4451 h -26.48417 v -3.4451 h 8.95725 l -6.45956,-18.38819 h -20.32606 l -6.84713,18.38819 z m 8.6558,-46.16427 -9.08643,24.28792 h 17.7853 l -8.52661,-24.28792 z" />
      <path
         id="path6775"
         style="font-size:88.19444275px;text-align:center;text-anchor:middle;stroke-width:2;fill:none;stroke:#000000;stroke-opacity:1;stroke-miterlimit:4;stroke-dasharray:none"
         d="m 231.7389,150.93761 h 0.17226 l 17.26854,-46.16428 h -8.61274 v -3.4451 h 20.54138 v 3.4451 h -7.75147 l -22.39312,59.77241 h -3.40203 l -21.01508,-59.77241 h -8.52661 v -3.4451 h 26.48417 v 3.4451 h -8.95725 z" />
      <path
         id="path6777"
         style="font-size:88.19444275px;text-align:center;text-anchor:middle;stroke-width:2;fill:none;stroke:#000000;stroke-opacity:1;stroke-miterlimit:4;stroke-dasharray:none"
         d="m 279.66879,104.77333 v 55.68135 h 8.61274 v 3.4451 h -25.6229 v -3.4451 h 8.61274 v -55.68135 h -8.61274 v -3.4451 h 25.6229 v 3.4451 z" />
      <path
         id="path6779"
         style="font-size:88.19444275px;text-align:center;text-anchor:middle;stroke-width:2;fill:none;stroke:#000000;stroke-opacity:1;stroke-miterlimit:4;stroke-dasharray:none"
         d="m 295.81768,145.16707 h 3.01446 q 0.4737,4.90926 1.8948,8.18211 1.4211,3.27284 3.48816,5.2107 2.11012,1.93787 4.78007,2.75608 2.71301,0.77515 5.72747,0.77515 3.61735,0 6.15811,-0.90434 2.58382,-0.90434 4.22024,-2.4977 1.67948,-1.63642 2.41156,-3.87573 0.77515,-2.28237 0.77515,-4.99539 0,-3.35897 -1.11965,-5.51215 -1.11966,-2.19625 -3.14365,-3.70348 -1.98093,-1.55029 -4.78007,-2.66995 -2.79914,-1.11965 -6.15811,-2.32544 -3.35897,-1.20578 -6.41649,-2.54075 -3.01446,-1.33498 -5.3399,-3.31591 -2.32544,-1.98093 -3.70348,-4.82313 -1.33497,-2.88527 -1.33497,-7.14857 0,-4.00493 1.29191,-7.32083 1.29191,-3.31591 3.83267,-5.64135 2.54075,-2.3685 6.2873,-3.66041 3.7896,-1.291911 8.78499,-1.291911 1.98093,0 4.09105,0.215321 2.11012,0.17225 4.17718,0.55983 2.11012,0.38757 4.13411,0.9474 2.024,0.51676 3.83267,1.16272 l 0.51677,15.63212 h -3.01446 q -0.38758,-4.65088 -1.72255,-7.57921 -1.33497,-2.92833 -3.27284,-4.56475 -1.8948,-1.67949 -4.26331,-2.28238 -2.32544,-0.64596 -4.78007,-0.64596 -3.27284,0 -5.6844,0.81821 -2.41157,0.77515 -4.00493,2.28238 -1.59335,1.46417 -2.41156,3.61735 -0.77515,2.11012 -0.77515,4.78007 0,3.18671 1.11966,5.29683 1.11965,2.11013 3.14364,3.66042 2.06706,1.50723 4.90927,2.71301 2.88526,1.16272 6.33036,2.45463 3.14365,1.20579 6.15811,2.58382 3.05752,1.33498 5.42602,3.40204 2.41157,2.02399 3.87573,5.03845 1.46417,2.97139 1.46417,7.40695 0,4.30637 -1.50723,7.66534 -1.46416,3.35897 -4.2633,5.64134 -2.75608,2.28238 -6.761,3.48816 -4.00493,1.20579 -9.04338,1.20579 -2.19625,0 -4.56475,-0.21532 -2.32544,-0.21532 -4.65088,-0.64596 -2.28238,-0.43063 -4.47862,-0.99046 -2.19625,-0.55983 -4.09106,-1.29191 z" />
      <path
         id="path6781"
         style="font-size:88.19444275px;text-align:center;text-anchor:middle;stroke-width:2;fill:none;stroke:#000000;stroke-opacity:1;stroke-miterlimit:4;stroke-dasharray:none"
         d="m 56.59886,241.84506 26.35498,-26.82868 h -6.502618 v -3.44509 h 20.282999 v 3.44509 h -8.741929 l -23.771159,23.90035 28.077528,31.78101 h 6.717936 v 3.44509 H 75.245439 v -3.44509 h 6.459553 z m -1.722548,28.85268 h 8.182102 v 3.44509 H 37.866153 v -3.44509 h 8.612739 v -55.68136 h -8.612739 v -3.44509 h 25.192261 v 3.44509 h -8.182102 z" />
      <path
         id="path6783"
         style="font-size:88.19444275px;text-align:center;text-anchor:middle;stroke-width:2;fill:none;stroke:#000000;stroke-opacity:1;stroke-miterlimit:4;stroke-dasharray:none"
         d="m 155.43004,274.78879 h -3.4451 l -37.25009,-57.74841 -0.21532,0.0431 v 53.6143 h 7.75146 v 3.44509 h -20.23993 v -3.44509 h 8.61274 v -55.68136 h -8.61274 v -3.44509 h 19.24947 l 30.05846,46.59491 0.21532,-0.0431 v -43.10676 h -8.61274 v -3.44509 h 21.10121 v 3.44509 h -8.61274 z" />
      <path
         id="path6785"
         style="font-size:88.19444275px;text-align:center;text-anchor:middle;stroke-width:2;fill:none;stroke:#000000;stroke-opacity:1;stroke-miterlimit:4;stroke-dasharray:none"
         d="m 185.78995,215.01638 v 55.68136 h 8.61274 v 3.44509 h -25.6229 v -3.44509 h 8.61274 v -55.68136 h -8.61274 v -3.44509 h 25.6229 v 3.44509 z" />
      <path
         id="path6787"
         style="font-size:88.19444275px;text-align:center;text-anchor:middle;stroke-width:2;fill:none;stroke:#000000;stroke-opacity:1;stroke-miterlimit:4;stroke-dasharray:none"
         d="m 250.21322,271.60208 q -2.06706,1.03352 -4.47863,1.80867 -2.41156,0.77515 -4.86619,1.24885 -2.45463,0.4737 -4.8662,0.68902 -2.41157,0.25838 -4.47862,0.25838 -6.71794,0 -12.01477,-2.23931 -5.29684,-2.23931 -9.00032,-6.37343 -3.66041,-4.17718 -5.59828,-10.11997 -1.93786,-5.94279 -1.93786,-13.39281 0,-7.62227 2.11012,-13.78038 2.11012,-6.15811 6.02892,-10.50754 3.91879,-4.39249 9.43094,-6.71793 5.55522,-2.36851 12.40235,-2.36851 3.91879,0 8.35435,0.77515 4.43556,0.73208 8.44049,2.02399 l 0.51676,15.71825 h -3.01446 q -0.38757,-4.69394 -1.72254,-7.62227 -1.33498,-2.9714 -3.31591,-4.60782 -1.98093,-1.63642 -4.52169,-2.23931 -2.49769,-0.60289 -5.29683,-0.60289 -2.92833,0 -5.55522,0.51676 -2.58382,0.51677 -4.82313,1.80868 -2.23931,1.29191 -4.04799,3.44509 -1.76561,2.15319 -3.05752,5.46909 -1.24885,3.31591 -1.93787,7.88066 -0.64595,4.52169 -0.64595,10.5506 0,5.94279 0.60289,10.42142 0.64596,4.43556 1.80868,7.62227 1.20578,3.18671 2.88526,5.29683 1.72255,2.11012 3.83267,3.31591 2.11012,1.20578 4.60782,1.72255 2.49769,0.4737 5.29683,0.4737 2.75608,0 5.38296,-0.21532 2.66995,-0.25838 5.08152,-1.16272 v -19.07722 h -9.47401 v -3.44509 h 25.62289 v 3.44509 h -7.75146 z" />
      <path
         id="path6789"
         style="font-size:88.19444275px;text-align:center;text-anchor:middle;stroke-width:2;fill:none;stroke:#000000;stroke-opacity:1;stroke-miterlimit:4;stroke-dasharray:none"
         d="m 272.99392,270.69774 v -55.68136 h -8.61274 v -3.44509 h 25.6229 v 3.44509 h -8.61274 v 24.93388 h 28.80961 v -24.93388 h -8.61274 v -3.44509 h 25.6229 v 3.44509 h -8.61274 v 55.68136 h 8.61274 v 3.44509 h -25.6229 v -3.44509 h 8.61274 v -27.21626 h -28.80961 v 27.21626 h 8.61274 v 3.44509 h -25.6229 v -3.44509 z" />
      <path
         id="path6791"
         style="font-size:88.19444275px;text-align:center;text-anchor:middle;stroke-width:2;fill:none;stroke:#000000;stroke-opacity:1;stroke-miterlimit:4;stroke-dasharray:none"
         d="m 334.2305,211.57129 h 50.47064 l 1.03353,18.56045 h -3.01446 q -0.60289,-4.82313 -1.55029,-7.79453 -0.9474,-2.97139 -2.71301,-4.56475 -1.72255,-1.63642 -4.47863,-2.19625 -2.75607,-0.55983 -6.93325,-0.55983 h -3.48816 v 55.68136 h 9.47401 v 3.44509 h -27.34544 v -3.44509 h 9.47401 v -55.68136 h -3.27284 q -2.79914,0 -4.95232,0.21532 -2.15319,0.21532 -3.78961,0.81821 -1.59336,0.60289 -2.75608,1.67949 -1.16272,1.07659 -1.98093,2.75607 -0.81821,1.67949 -1.4211,4.04799 -0.55983,2.3685 -0.99046,5.59828 h -3.01446 z" />
    </g>
  </g>
</svg>
